<svg xmlns="http://www.w3.org/2000/svg" viewBox="0 0 236.69 215.32"><defs><style>.cls-1{fill:#00a19b;}</style></defs><title>logo</title><g id="Layer_2" data-name="Layer 2"><g id="Layer_1-2" data-name="Layer 1"><path class="cls-1" d="M111,143.33v-.82a3.38,3.38,0,0,1-2.47-1,3.34,3.34,0,0,1-1-2.47V93.38q0-7.95-3.5-12.07a15.35,15.35,0,0,0-8.88-5.21,27,27,0,0,0-11.69.4,41.25,41.25,0,0,0-12,5l-.06-4.53V59.35q0-6.59-2.19-9.33c-1.47-1.82-4-2.74-7.68-2.74H46.25v.82a3.29,3.29,0,0,1,3.44,3.44v87.54a3.29,3.29,0,0,1-3.44,3.43v.82H75v-.82a3.48,3.48,0,0,1-2.52-1,3.31,3.31,0,0,1-1-2.47V82.55A18.19,18.19,0,0,1,76,80.62a8.64,8.64,0,0,1,4.67-.07,6.37,6.37,0,0,1,3.63,2.89q1.44,2.27,1.44,6.93v48.71a3.26,3.26,0,0,1-1,2.47,3.51,3.51,0,0,1-2.49,1v.82H111Z"/><path class="cls-1" d="M193.21,89.68a9.47,9.47,0,0,1-3,2.81,15.1,15.1,0,0,1-4.19,1.79,19.19,19.19,0,0,1-4.93.62,28.7,28.7,0,0,1-4.81-.42V77.06a18.64,18.64,0,0,1,4.81-.56,15.62,15.62,0,0,1,9.33,2.75Q194.31,82,194.31,86a6.55,6.55,0,0,1-1.1,3.71m-37.94,53a6.65,6.65,0,0,1-2.13,2.82,7,7,0,0,1-3.15,1.3,15.82,15.82,0,0,1-3.57.14,46.49,46.49,0,0,1-9.19-1.58,73,73,0,0,0-11-2h19.69v-.82a3.44,3.44,0,0,1-2.52-1,3.31,3.31,0,0,1-1-2.47V118.36c.83.73,2,1.81,3.44,3.22a39.12,39.12,0,0,1,4.24,4.94,51.18,51.18,0,0,1,3.71,5.83,15.13,15.13,0,0,1,1.92,5.63,9.65,9.65,0,0,1-.48,4.66M120.63,96.26v2.2A73.45,73.45,0,0,1,111,87.28a19,19,0,0,1-3.57-10.78,9.9,9.9,0,0,1,.55-3.22,7.63,7.63,0,0,1,1.85-2.88,10,10,0,0,1,3.36-2.13,14.4,14.4,0,0,1,5.22-.82A23.16,23.16,0,0,1,128,69.78a78.21,78.21,0,0,1,10.42,5.9H117.19v.82a3.3,3.3,0,0,1,3.44,3.44Zm21.81,0V79.94a4.63,4.63,0,0,1,.28-1.51c1.92,1.28,3.86,2.6,5.83,4s3.95,2.7,6,4v39.24a24.52,24.52,0,0,0,.82,6.72,35.68,35.68,0,0,0-3.22-5c-1.24-1.61-2.48-3.07-3.71-4.4a48.08,48.08,0,0,0-3.5-3.43c-1.09-1-1.92-1.67-2.47-2.12ZM191,78.63a16.25,16.25,0,0,0-9.81-2.95,17.86,17.86,0,0,0-4.81.69V60.59h-.82a11,11,0,0,1-2.82,5.9,24.81,24.81,0,0,1-5.84,4.81,31.9,31.9,0,0,1-7.57,3.22,29.66,29.66,0,0,1-8.12,1.16v.82a3.25,3.25,0,0,1,2.42,1,3.36,3.36,0,0,1,.94,2.47v4.39c-1.82-1.19-3.58-2.4-5.26-3.64s-3.38-2.44-5.12-3.63a2.47,2.47,0,0,1,1.8-.56v-.82H142A105.29,105.29,0,0,0,131.74,69a10.34,10.34,0,0,0,7.55-3.15,10.79,10.79,0,0,0-.07-15.31,10.45,10.45,0,0,0-7.62-3.22,10.6,10.6,0,0,0-7.75,3.22,10.41,10.41,0,0,0-3.22,7.62,10.31,10.31,0,0,0,.82,4.12,12.39,12.39,0,0,0,2.19,3.43,18.06,18.06,0,0,0-5.21-.82A11.21,11.21,0,0,0,109,69.37a11.82,11.82,0,0,0-2.2,7.13,19.9,19.9,0,0,0,3.78,11.6,77.72,77.72,0,0,0,10.09,11.46v39.52a3.29,3.29,0,0,1-3.44,3.43v.41q-4.66.41-6.58,2.6a6.85,6.85,0,0,0-1.92,4.53,8,8,0,0,0,2.26,5.22,19.43,19.43,0,0,0,7.07,4.66l1.45,0c-3.32-1.14-6.64-3.33-8-5.11a8.36,8.36,0,0,1-2-4.74,6.18,6.18,0,0,1,2.06-4.39q2.06-2.06,7.27-2.06a50.46,50.46,0,0,1,10.16,1c3.11.65,6,1.28,8.64,1.92,1.74.46,3.38.83,4.94,1.1s3.11.51,4.66.69a11.63,11.63,0,0,0,4.6-.35,7.93,7.93,0,0,0,3.5-2q2.49-2.61,2.07-7.41c-.09-.46-.16-.9-.21-1.31a4.91,4.91,0,0,0-.34-1.3,13.54,13.54,0,0,0,6.28,5.7,21.83,21.83,0,0,0,8.78,1.71,22.26,22.26,0,0,0,8.94-1.85,43.08,43.08,0,0,0,7.41-4v-1.1a27.9,27.9,0,0,1-4.18,2.06,5.65,5.65,0,0,1-3.84.27,4.92,4.92,0,0,1-2.82-2.88,17.58,17.58,0,0,1-1.1-7.13V96.54a19.61,19.61,0,0,0,4.81.55,15.13,15.13,0,0,0,5.41-1,15.58,15.58,0,0,0,4.4-2.47,11.89,11.89,0,0,0,3-3.57A8.69,8.69,0,0,0,195,86,8.81,8.81,0,0,0,191,78.63"/><polygon class="cls-1" points="48.32 159.75 48.32 164.79 54.14 164.79 54.14 159.75 55.71 159.75 55.71 171.78 54.14 171.78 54.14 166.14 48.32 166.14 48.32 171.78 46.75 171.78 46.75 159.75 48.32 159.75"/><path class="cls-1" d="M65.76,158a.88.88,0,0,1,.89-.89.85.85,0,0,1,.86.89.88.88,0,1,1-1.75,0m-3.3,0a.87.87,0,0,1,.87-.89.85.85,0,0,1,.86.89.87.87,0,1,1-1.73,0m-1.34,7.81c0,2.59,1.39,4.89,3.85,4.89s3.86-2.27,3.86-5c0-2.4-1.25-4.9-3.84-4.9s-3.87,2.39-3.87,5m9.35-.18c0,4.12-2.52,6.34-5.59,6.34s-5.4-2.48-5.4-6.12c0-3.82,2.35-6.32,5.56-6.32s5.43,2.52,5.43,6.1"/><path class="cls-1" d="M83.44,171.25a11,11,0,0,1-3.71.65,5.64,5.64,0,0,1-6.17-6.06c0-3.59,2.48-6.21,6.51-6.21a7.59,7.59,0,0,1,3,.55l-.4,1.27a6,6,0,0,0-2.65-.52,4.5,4.5,0,0,0-4.84,4.84c0,3,1.82,4.85,4.64,4.85a5,5,0,0,0,2.07-.32v-3.59H79.48v-1.25h4Z"/><polygon class="cls-1" points="87.57 159.75 89.14 159.75 89.14 170.48 94.28 170.48 94.28 171.78 87.57 171.78 87.57 159.75"/><path class="cls-1" d="M103.7,166.78l-1.19-3.46c-.27-.78-.45-1.49-.63-2.19h0c-.18.7-.36,1.44-.61,2.18l-1.18,3.47Zm-4,1.22-1.24,3.78H96.89l4.1-12h1.86l4.1,12h-1.66L104,168Z"/><path class="cls-1" d="M110.51,171.78v-12h1.71l3.84,6.09a35.64,35.64,0,0,1,2.14,3.91l0,0c-.14-1.61-.18-3.07-.18-4.94v-5h1.46v12H118l-3.82-6.1a35.27,35.27,0,0,1-2.23-4h-.06c.09,1.52.11,3,.11,5v5.14Z"/><path class="cls-1" d="M125.59,170.57a13.64,13.64,0,0,0,1.57.07c3.34,0,5.12-1.86,5.12-5.1,0-2.84-1.59-4.64-4.87-4.64a8.79,8.79,0,0,0-1.82.16ZM124,159.93a20,20,0,0,1,3.3-.26,6.93,6.93,0,0,1,4.87,1.5,5.47,5.47,0,0,1,1.71,4.31,6.42,6.42,0,0,1-1.73,4.68,7.5,7.5,0,0,1-5.33,1.73,24.32,24.32,0,0,1-2.82-.15Z"/><polygon class="cls-1" points="143.92 166.14 139.26 166.14 139.26 170.48 144.47 170.48 144.47 171.78 137.69 171.78 137.69 159.75 144.2 159.75 144.2 161.06 139.26 161.06 139.26 164.86 143.92 164.86 143.92 166.14"/><polygon class="cls-1" points="150.84 161.08 147.19 161.08 147.19 159.76 156.09 159.76 156.09 161.08 152.41 161.08 152.41 171.78 150.84 171.78 150.84 161.08"/><path class="cls-1" d="M158.92,169.89a5.28,5.28,0,0,0,2.76.78c1.59,0,2.52-.84,2.52-2s-.65-1.76-2.27-2.37c-2-.71-3.17-1.75-3.17-3.43,0-1.87,1.55-3.26,3.88-3.26a5.45,5.45,0,0,1,2.65.59l-.43,1.27a4.38,4.38,0,0,0-2.27-.58c-1.64,0-2.27,1-2.27,1.81,0,1.12.74,1.67,2.4,2.32,2,.78,3.05,1.76,3.05,3.53s-1.36,3.48-4.2,3.48a6.14,6.14,0,0,1-3.06-.79Z"/><rect class="cls-1" x="175.25" y="159.75" width="1.57" height="12.02"/><polygon class="cls-1" points="183.6 161.08 179.94 161.08 179.94 159.76 188.84 159.76 188.84 161.08 185.17 161.08 185.17 171.78 183.6 171.78 183.6 161.08"/><polygon class="cls-1" points="0 0 0 215.32 153.77 215.32 153.77 199.48 15.85 199.48 15.85 15.85 220.85 15.85 220.85 199.48 187.04 199.48 187.04 215.32 236.69 215.32 236.69 0 0 0"/></g></g></svg>